<svg width="96" height="87" viewBox="0 0 96 87" fill="none" xmlns="http://www.w3.org/2000/svg">
<path d="M70.8195 62.4183C67.9167 62.2867 65.4569 64.5332 65.3253 67.436C65.1937 70.3387 67.4402 72.7985 70.343 72.9301C73.2457 73.0617 75.7055 70.8152 75.8371 67.9125C75.9687 65.0097 73.7222 62.5499 70.8195 62.4183Z" fill="#0B1A32"/>
<path d="M46.4616 46.8307C43.5588 46.6992 41.099 48.9456 40.9674 51.8484C40.8358 54.7512 43.0823 57.211 45.9851 57.3426C48.8878 57.4741 51.3476 55.2277 51.4792 52.3249C51.6108 49.4221 49.3643 46.9623 46.4616 46.8307Z" fill="#0B1A32"/>
<path d="M62.0326 22.488C59.1298 22.3564 56.67 24.6029 56.5384 27.5056C56.4069 30.4084 58.6533 32.8682 61.5561 32.9998C64.4589 33.1314 66.9187 30.8849 67.0503 27.9821C67.1818 25.0794 64.9354 22.6196 62.0326 22.488Z" fill="#0B1A32"/>
<path d="M86.3912 38.0597C83.4885 37.9281 81.0287 40.1746 80.8971 43.0774C80.7655 45.9801 83.012 48.44 85.9147 48.5715C88.8175 48.7031 91.2773 46.4566 91.4089 43.5539C91.5405 40.6511 89.294 38.1913 86.3912 38.0597Z" fill="#0B1A32"/>
<path d="M19.423 51.8871C16.5202 51.7555 14.0604 54.002 13.9288 56.9047C13.7972 59.8075 16.0437 62.2673 18.9465 62.3989C21.8492 62.5304 24.3091 60.284 24.4406 57.3812C24.5722 54.4784 22.3257 52.0186 19.423 51.8871Z" fill="#0B1A32"/>
<path d="M4.37195 34.31C4.93089 33.4319 5.73776 32.7393 6.69047 32.3198C7.64317 31.9004 8.69888 31.773 9.72402 31.9537C10.7492 32.1345 11.6976 32.6152 12.4495 33.3352C13.2013 34.0552 13.7226 34.982 13.9475 35.9984C14.1724 37.0147 14.0908 38.075 13.7129 39.0449C13.3351 40.0149 12.678 40.8509 11.8248 41.4473C10.9716 42.0437 9.96073 42.3736 8.92001 42.3953C7.87928 42.4169 6.85552 42.1294 5.97826 41.5691C4.80354 40.8187 3.97459 39.6329 3.67342 38.2719C3.37226 36.9109 3.62349 35.486 4.37195 34.31Z" fill="#0B1A32"/>
<path d="M7.33843 30.4628C6.46463 30.6669 5.6396 31.0411 4.91043 31.5641C4.18127 32.0871 3.56225 32.7486 3.08872 33.5108C2.6152 34.273 2.29644 35.121 2.15065 36.0064C2.00485 36.8918 2.03487 37.7973 2.239 38.6711C2.44313 39.5448 2.81736 40.3699 3.34035 41.099C3.86332 41.8282 4.5248 42.4472 5.287 42.9208C6.04922 43.3943 6.89723 43.713 7.78263 43.8588C8.66803 44.0046 9.57347 43.9746 10.4473 43.7705L14.7219 52.0071C14.2165 52.4519 13.7766 52.966 13.4153 53.5342C12.8182 54.4142 12.4342 55.4212 12.2939 56.4753C12.1536 57.5295 12.2608 58.6018 12.607 59.6073C12.9533 60.6129 13.529 61.5239 14.2885 62.2682C15.0481 63.0125 15.9706 63.5697 16.9829 63.8954C17.9953 64.2212 19.0696 64.3067 20.1207 64.145C21.1718 63.9834 22.1708 63.5791 23.0384 62.9642C23.9061 62.3493 24.6186 61.5408 25.1194 60.6026C25.6203 59.6645 25.8956 58.6226 25.9237 57.5595L39.923 54.942C40.4789 56.1701 41.3872 57.2051 42.5326 57.9158C43.8299 58.7404 45.3669 59.1044 46.8962 58.9493C48.4254 58.7942 49.858 58.1289 50.9632 57.0606L64.1313 65.4306C63.6087 66.8926 63.6022 68.4894 64.113 69.9555C64.6237 71.4217 65.6209 72.6688 66.9387 73.4897C68.348 74.3898 70.0385 74.7417 71.6898 74.4787C73.3412 74.2157 74.8387 73.356 75.8986 72.0626C76.9584 70.7691 77.507 69.1318 77.4402 67.461C77.3735 65.7901 76.6961 64.2018 75.5365 62.997L83.8785 49.7483C85.0261 50.1483 86.2597 50.2349 87.4519 49.999C88.6442 49.7631 89.7519 49.2134 90.6608 48.4066C91.5697 47.5998 92.2468 46.5651 92.6224 45.4092C92.9979 44.2533 93.0583 43.0182 92.7971 41.8312C92.536 40.6443 91.9629 39.5485 91.137 38.6569C90.3111 37.7653 89.2622 37.1103 88.0986 36.7594C86.935 36.4085 85.6989 36.3744 84.5178 36.6606C83.3366 36.9469 82.2532 37.5431 81.3794 38.3878L68.2135 29.9702C68.6134 28.8226 68.7 27.589 68.4641 26.3968C68.2283 25.2045 67.6786 24.0968 66.8717 23.1879C66.0649 22.279 65.0302 21.6019 63.8743 21.2263C62.7185 20.8508 61.4833 20.7904 60.2964 21.0516C59.1094 21.3127 58.0136 21.8858 57.122 22.7117C56.2305 23.5376 55.5754 24.5865 55.2245 25.7501C54.8736 26.9137 54.8395 28.1498 55.1257 29.3309C55.412 30.5121 56.0082 31.5955 56.8529 32.4693L48.4353 45.6352C47.2356 45.2313 45.9464 45.1729 44.715 45.4666C43.2582 45.7804 41.9453 46.5654 40.9792 47.7C40.013 48.8347 39.4475 50.256 39.37 51.7442L25.3707 54.3617C24.7363 52.9087 23.614 51.7231 22.1979 51.01C20.7818 50.297 19.161 50.1012 17.6159 50.4567L17.4418 50.4488L13.2578 42.3115C14.4254 41.3258 15.2278 39.9762 15.5361 38.4796C15.8445 36.983 15.6408 35.4262 14.9579 34.0592C14.275 32.6923 13.1525 31.5945 11.7706 30.9423C10.3888 30.29 8.82779 30.1211 7.33843 30.4628ZM59.5199 34.1766C60.7121 34.5874 61.9942 34.6626 63.2262 34.3939C64.4582 34.1252 65.5926 33.523 66.5055 32.653L79.6714 41.0706C79.2757 42.2665 79.2176 43.5483 79.5035 44.7751C79.7744 46.0052 80.3889 47.1333 81.2755 48.0281L72.858 61.194C72.2349 60.9757 71.5832 60.85 70.9237 60.8208C70.3081 60.7948 69.6918 60.8523 69.0916 60.9916C67.863 61.2666 66.736 61.8805 65.8386 62.7636L52.6734 54.3302C53.0827 53.1391 53.1555 51.8582 52.8838 50.6284C52.612 49.3986 52.0063 48.2675 51.1333 47.3598L59.5199 34.1766ZM73.6297 69.716C73.2408 70.3303 72.6777 70.8148 72.0124 71.1078C71.347 71.4009 70.6094 71.4892 69.8937 71.3614C69.178 71.2337 68.5165 70.8957 67.9936 70.3906C67.4706 69.8855 67.11 69.2361 66.9575 68.5252C66.8543 68.0549 66.8448 67.5689 66.9297 67.0949C67.0146 66.621 67.1921 66.1684 67.4521 65.7632C67.7122 65.358 68.0496 65.008 68.4451 64.7334C68.8406 64.4587 69.2864 64.2648 69.7569 64.1627C70.4651 64.0055 71.204 64.0622 71.8799 64.3256C72.5558 64.5891 73.1381 65.0474 73.5531 65.6424C73.968 66.2374 74.1969 66.9423 74.2105 67.6676C74.2241 68.3929 74.022 69.1058 73.6297 69.716ZM88.1013 40.2312C88.9173 40.7617 89.4908 41.5928 89.6972 42.5438C89.9037 43.4949 89.7263 44.489 89.2036 45.31C88.6427 46.0423 87.8269 46.5369 86.9183 46.6958C86.0096 46.8547 85.0744 46.6663 84.2982 46.1678C83.522 45.6693 82.9616 44.8973 82.7281 44.0049C82.4946 43.1124 82.6051 42.1648 83.0377 41.3501C83.2965 40.9396 83.6341 40.5843 84.0309 40.3049C84.4277 40.0255 84.8759 39.8274 85.3496 39.722C85.8234 39.6166 86.3133 39.6061 86.7911 39.6911C87.269 39.776 87.7253 39.9547 88.1337 40.2168L88.1013 40.2312ZM58.6158 25.7755C59.1795 25.0551 59.9915 24.5706 60.8932 24.4169C61.7949 24.2631 62.7216 24.451 63.4922 24.9438C64.2628 25.4367 64.8221 26.1991 65.0606 27.0822C65.2992 27.9653 65.2 28.9056 64.7824 29.7195C64.252 30.5354 63.4209 31.109 62.4698 31.3154C61.5188 31.5219 60.5247 31.3445 59.7037 30.8218C58.9087 30.277 58.3583 29.4429 58.17 28.4977C57.9816 27.5525 58.1703 26.5712 58.6956 25.7632L58.6158 25.7755ZM43.044 50.1341C43.304 49.727 43.6417 49.3752 44.0377 49.0987C44.4337 48.8222 44.8803 48.6264 45.3521 48.5225C45.8238 48.4187 46.3113 48.4088 46.7868 48.4935C47.2624 48.5781 47.7166 48.7557 48.1235 49.0159C48.938 49.5435 49.512 50.3706 49.7214 51.3182C49.9308 52.2659 49.7587 53.2578 49.2423 54.0795C48.9882 54.4947 48.6538 54.8551 48.2587 55.1394C47.8636 55.4238 47.4157 55.6266 46.9413 55.7358C46.4669 55.845 45.9755 55.8584 45.4958 55.7754C45.0161 55.6924 44.5578 55.5145 44.1477 55.2523C43.7376 54.99 43.3839 54.6485 43.1074 54.2479C42.8309 53.8472 42.637 53.3955 42.5372 52.919C42.4373 52.4425 42.4336 51.951 42.526 51.473C42.6185 50.9951 42.8053 50.5404 43.0757 50.1355L43.044 50.1341ZM21.069 54.0715C21.477 54.3268 21.8297 54.6613 22.1061 55.0553C22.3826 55.4493 22.5771 55.8948 22.6783 56.3654C22.8845 57.3085 22.7114 58.2949 22.1966 59.1115C21.6817 59.9281 20.8662 60.5095 19.9264 60.73C19.6071 60.7967 19.2809 60.8246 18.9549 60.8129C18.3163 60.7787 17.6972 60.5813 17.1566 60.2396C16.7495 59.9756 16.3986 59.6337 16.1243 59.2335C15.8499 58.8333 15.6575 58.3827 15.5581 57.9078C15.4587 57.4329 15.4543 56.9429 15.5451 56.4663C15.636 55.9897 15.8203 55.5357 16.0874 55.1307C16.3456 54.7238 16.682 54.3723 17.077 54.0963C17.472 53.8203 17.9179 53.6253 18.3887 53.5228C18.8595 53.4202 19.346 53.412 19.82 53.4986C20.2941 53.5853 20.7462 53.7651 21.1503 54.0276L21.069 54.0715ZM11.8974 39.0771C11.5492 39.6158 11.0662 40.0539 10.4962 40.3481C9.92634 40.6423 9.28938 40.7823 8.64864 40.7542C8.00899 40.7258 7.38837 40.528 6.85031 40.1809C6.23622 39.7895 5.75221 39.2245 5.45963 38.5576C5.16707 37.8908 5.07914 37.152 5.20699 36.4351C5.33483 35.7182 5.6727 35.0554 6.17775 34.5307C6.6828 34.0061 7.33227 33.6433 8.04381 33.4883C8.75535 33.3332 9.49689 33.393 10.1744 33.66C10.8519 33.927 11.4349 34.3892 11.8494 34.9879C12.2639 35.5867 12.4912 36.2951 12.5026 37.0232C12.5139 37.7513 12.3088 38.4665 11.9132 39.0779L11.8974 39.0771Z" fill="#123A89"/>
<path d="M29.8094 74.3765L29.8811 72.7934L31.4642 72.8652C31.8841 72.8842 32.2943 72.7357 32.6047 72.4522C32.915 72.1688 33.1001 71.7737 33.1191 71.3538C33.1381 70.934 32.9896 70.5237 32.7062 70.2134C32.4227 69.903 32.0276 69.718 31.6078 69.699L30.0246 69.6272L30.0964 68.0441C30.1154 67.6242 29.9669 67.214 29.6835 66.9037C29.4 66.5933 29.0049 66.4083 28.5851 66.3892C28.1652 66.3702 27.755 66.5187 27.4446 66.8022C27.1343 67.0856 26.9492 67.4807 26.9302 67.9006L26.8584 69.4837L25.2753 69.4119C24.8555 69.3929 24.4452 69.5414 24.1349 69.8249C23.8245 70.1083 23.6395 70.5034 23.6205 70.9233C23.6014 71.3431 23.75 71.7534 24.0334 72.0637C24.3168 72.3741 24.7119 72.5591 25.1318 72.5781L26.7149 72.6499L26.6432 74.233C26.6241 74.6529 26.7727 75.0631 27.0561 75.3734C27.3395 75.6838 27.7346 75.8688 28.1545 75.8879C28.5744 75.9069 28.9846 75.7584 29.2949 75.4749C29.6053 75.1915 29.7903 74.7964 29.8094 74.3765Z" fill="#123A89"/>
<path d="M90.432 80.1545L88.8489 80.0827L88.9206 78.4996C88.9397 78.0797 88.7911 77.6695 88.5077 77.3592C88.2243 77.0488 87.8291 76.8638 87.4093 76.8447C86.9894 76.8257 86.5792 76.9742 86.2688 77.2577C85.9585 77.5411 85.7734 77.9362 85.7544 78.3561L85.6827 79.9392L84.0995 79.8674C83.6797 79.8484 83.2695 79.9969 82.9591 80.2804C82.6488 80.5638 82.4637 80.9589 82.4447 81.3788C82.4256 81.7986 82.5742 82.2089 82.8576 82.5192C83.1411 82.8296 83.5362 83.0146 83.956 83.0336L85.5391 83.1054L85.4674 84.6885C85.4483 85.1084 85.5969 85.5186 85.8803 85.8289C86.1637 86.1393 86.5588 86.3243 86.9787 86.3434C87.3986 86.3624 87.8088 86.2139 88.1192 85.9304C88.4295 85.647 88.6145 85.2519 88.6336 84.832L88.7053 83.2489L90.2884 83.3207C90.7083 83.3397 91.1185 83.1912 91.4289 82.9077C91.7392 82.6243 91.9243 82.2292 91.9433 81.8093C91.9623 81.3895 91.8138 80.9792 91.5304 80.6689C91.2469 80.3585 90.8518 80.1735 90.432 80.1545Z" fill="#123A89"/>
<path d="M78.0097 22.0859C78.4296 22.1049 78.8398 21.9564 79.1502 21.673C79.4605 21.3895 79.6456 20.9944 79.6646 20.5746L79.7363 18.9914L81.3195 19.0632C81.7393 19.0822 82.1495 18.9337 82.4599 18.6503C82.7702 18.3668 82.9553 17.9717 82.9743 17.5519C82.9934 17.132 82.8448 16.7218 82.5614 16.4114C82.2779 16.1011 81.8828 15.916 81.463 15.897L79.8799 15.8252L79.9516 14.2421C79.9707 13.8223 79.8221 13.412 79.5387 13.1017C79.2553 12.7913 78.8602 12.6063 78.4403 12.5873C78.0204 12.5682 77.6102 12.7168 77.2998 13.0002C76.9895 13.2836 76.8045 13.6787 76.7854 14.0986L76.7137 15.6817L75.1306 15.61C74.7107 15.5909 74.3005 15.7395 73.9901 16.0229C73.6798 16.3063 73.4947 16.7014 73.4757 17.1213C73.4567 17.5412 73.6052 17.9514 73.8886 18.2617C74.1721 18.5721 74.5672 18.7571 74.987 18.7762L76.5701 18.8479L76.4984 20.431C76.4793 20.8509 76.6279 21.2611 76.9113 21.5715C77.1947 21.8818 77.5898 22.0669 78.0097 22.0859Z" fill="#123A89"/>
<path d="M15.0234 6.85713L16.6065 6.9289L16.5348 8.512C16.5157 8.93187 16.6643 9.3421 16.9477 9.65245C17.2311 9.9628 17.6262 10.1478 18.0461 10.1669C18.466 10.1859 18.8762 10.0374 19.1865 9.75393C19.4969 9.4705 19.6819 9.07539 19.701 8.65553L19.7727 7.07242L21.3558 7.14418C21.7757 7.16321 22.1859 7.01468 22.4963 6.73124C22.8066 6.44781 22.9917 6.0527 23.0107 5.63284C23.0297 5.21297 22.8812 4.80275 22.5978 4.4924C22.3143 4.18205 21.9192 3.997 21.4994 3.97797L19.9163 3.90621L19.988 2.3231C20.007 1.90323 19.8585 1.49301 19.5751 1.18266C19.2916 0.872314 18.8965 0.687265 18.4767 0.668232C18.0568 0.6492 17.6466 0.797743 17.3362 1.08117C17.0259 1.36461 16.8408 1.75971 16.8218 2.17958L16.75 3.76268L15.1669 3.69092C14.7471 3.67189 14.3368 3.82043 14.0265 4.10386C13.7161 4.3873 13.5311 4.7824 13.5121 5.20227C13.493 5.62213 13.6416 6.03236 13.925 6.34271C14.2084 6.65306 14.6035 6.8381 15.0234 6.85713Z" fill="#123A89"/>
</svg>
