<svg width="83" height="87" viewBox="0 0 83 87" fill="none" xmlns="http://www.w3.org/2000/svg">
<path d="M61.5827 25.1933C61.7363 24.596 61.7719 23.9754 61.6873 23.3669C61.6028 22.7584 61.3997 22.1739 61.0898 21.6467C60.7799 21.1196 60.3692 20.6602 59.8811 20.2946C59.393 19.9291 58.8371 19.6647 58.2451 19.5164C57.6532 19.3682 57.0367 19.339 56.431 19.4306C55.8253 19.5222 55.2422 19.7327 54.715 20.0502C54.1877 20.3677 53.7267 20.7859 53.3582 21.281C52.9897 21.776 52.7209 22.3382 52.5673 22.9355L46.2426 22.9731C46.1343 22.5256 45.9634 22.0965 45.735 21.6985C45.3932 21.0591 44.9072 20.5102 44.3155 20.0953C43.7239 19.6804 43.0428 19.411 42.3263 19.3084C41.6099 19.2058 40.8777 19.2727 40.1879 19.504C39.4981 19.7354 38.8696 20.1246 38.3523 20.6409C37.835 21.1573 37.443 21.7865 37.2075 22.4787C36.972 23.171 36.8995 23.9072 36.9956 24.6289C37.0918 25.3507 37.3539 26.0382 37.7614 26.637C38.1688 27.2358 38.7103 27.7293 39.3429 28.0784L36.4869 37.4431C35.5698 37.3989 34.6573 37.6303 33.8656 38.1077C32.957 38.6422 32.2503 39.4669 31.8594 40.4491C31.4685 41.4312 31.4161 42.5137 31.7106 43.5221L22.4876 48.9479C21.771 48.1723 20.8095 47.6697 19.7629 47.5237C18.7164 47.3776 17.6478 47.597 16.735 48.1452C15.7453 48.7245 14.9973 49.6467 14.6328 50.7371C14.2683 51.8275 14.3126 53.0103 14.7573 54.0613C15.202 55.1123 16.0163 55.9586 17.0457 56.4396C18.0751 56.9207 19.2482 57.0031 20.3426 56.6714L25.6943 65.902C25.0894 66.4778 24.6463 67.2039 24.4109 68.0055C24.1755 68.8071 24.1562 69.6551 24.3551 70.462C24.554 71.2688 24.9639 72.0054 25.5424 72.5957C26.1209 73.1859 26.8471 73.6085 27.6461 73.8198C28.4451 74.031 29.2879 74.0233 30.0876 73.7975C30.8873 73.5716 31.6149 73.1358 32.1953 72.535C32.7757 71.9341 33.188 71.1901 33.3895 70.3795C33.591 69.569 33.5744 68.7213 33.3416 67.924L42.5925 62.5143C43.1583 63.1169 43.8753 63.555 44.6695 63.7833C45.4636 64.0116 46.3062 64.0219 47.1103 63.8132C47.9144 63.6044 48.6509 63.1841 49.2437 62.5957C49.8366 62.0073 50.2643 61.272 50.4828 60.4658C50.7013 59.6595 50.7027 58.8115 50.4868 58.0092C50.2708 57.2069 49.8454 56.4795 49.2545 55.9018C48.6635 55.3242 47.9284 54.9173 47.1249 54.7232C46.3215 54.5291 45.4788 54.5548 44.6839 54.7977L39.406 45.5467C40.0299 44.9403 40.4736 44.1715 40.6865 43.3279C40.9587 42.3405 40.901 41.2937 40.5224 40.3495C40.1438 39.4053 39.4653 38.6162 38.5918 38.1041L41.4478 28.7394C42.5256 28.8058 43.5966 28.4908 44.4756 27.8489C45.3546 27.207 45.9862 26.2786 46.2612 25.2242L46.3211 25.1204L52.5572 25.1071C52.7821 26.1278 53.3422 27.0391 54.1476 27.6948C54.9531 28.3504 55.957 28.7122 56.9983 28.7222C58.0395 28.7321 59.0576 28.3896 59.889 27.7496C60.7205 27.1096 61.3169 26.2093 61.5827 25.1933ZM42.8087 55.8928C42.183 56.4924 41.7314 57.2518 41.5032 58.0879C41.275 58.924 41.279 59.8047 41.5147 60.6337L32.2638 66.0434C31.6675 65.4283 30.9124 64.9925 30.0816 64.784C29.2534 64.5652 28.378 64.5881 27.5571 64.85L22.2792 55.599C22.6084 55.2868 22.8907 54.9282 23.1173 54.5346C23.328 54.1669 23.4886 53.7727 23.5947 53.3627C23.818 52.5267 23.8047 51.6469 23.5561 50.8232L32.8163 45.4189C33.4054 46.0407 34.1553 46.4852 34.9835 46.7034C35.8117 46.9215 36.6861 46.9049 37.5105 46.6554L42.8087 55.8928ZM16.8922 53.4089C16.6448 52.9796 16.5308 52.4845 16.5647 51.9867C16.5987 51.489 16.7791 51.0111 17.083 50.614C17.3868 50.2169 17.8004 49.9186 18.2709 49.7571C18.7413 49.5955 19.2475 49.5781 19.7247 49.7071C20.0413 49.7909 20.3375 49.9369 20.5967 50.1367C20.8558 50.3366 21.0726 50.5863 21.2348 50.8716C21.3969 51.1569 21.5012 51.4722 21.5416 51.7995C21.582 52.1267 21.5578 52.4594 21.4703 52.7786C21.3408 53.2601 21.0725 53.6935 20.6994 54.0239C20.3263 54.3543 19.8652 54.5667 19.3747 54.6343C18.8841 54.7018 18.3863 54.6214 17.9443 54.4032C17.5023 54.185 17.1361 53.8389 16.8922 53.4089ZM30.0994 71.4524C29.5208 71.7849 28.8376 71.8755 28.1983 71.7046C27.5589 71.5336 27.0153 71.1148 26.6854 70.5393C26.4213 69.9682 26.3812 69.3156 26.5732 68.7112C26.7652 68.1068 27.1753 67.5947 27.722 67.2765C28.2687 66.9582 28.9122 66.8572 29.5247 66.9933C30.1372 67.1294 30.674 67.4928 31.0286 68.0114C31.1943 68.2976 31.3017 68.6146 31.3446 68.9442C31.3875 69.2737 31.3651 69.6092 31.2785 69.9314C31.192 70.2535 31.0431 70.5559 30.8405 70.8211C30.6378 71.0864 30.3854 71.3091 30.0978 71.4766L30.0994 71.4524ZM48.1647 57.9644C48.4208 58.5336 48.4559 59.1806 48.263 59.7792C48.07 60.3778 47.6631 60.8849 47.1215 61.2015C46.5799 61.518 45.9427 61.6214 45.3342 61.4912C44.7257 61.3611 44.1897 61.0069 43.8309 60.4978C43.5066 59.9191 43.4238 59.2326 43.6005 58.5874C43.7773 57.9423 44.1993 57.3907 44.7748 57.0527C45.3555 56.7375 46.0332 56.6619 46.6632 56.8421C47.2932 57.0223 47.8257 57.4439 48.1468 58.017L48.1647 57.9644ZM38.3994 40.8501C38.5626 41.136 38.668 41.452 38.7094 41.7801C38.7507 42.1083 38.7274 42.4421 38.6406 42.7625C38.5538 43.083 38.4053 43.3837 38.2035 43.6476C38.0018 43.9115 37.7507 44.1334 37.4648 44.3005C36.8883 44.6331 36.2073 44.7252 35.5692 44.5572C34.931 44.3891 34.3869 43.9742 34.0547 43.4023C33.8847 43.1175 33.7732 42.8008 33.7268 42.4708C33.6803 42.1407 33.6999 41.804 33.7843 41.4802C33.8687 41.1565 34.0163 40.8522 34.2184 40.5853C34.4204 40.3183 34.673 40.0941 34.9612 39.9256C35.2494 39.7571 35.5675 39.6478 35.8969 39.6041C36.2262 39.5604 36.5603 39.5831 36.8794 39.6709C37.1986 39.7588 37.4964 39.91 37.7555 40.1157C38.0147 40.3214 38.2298 40.5775 38.3885 40.869L38.3994 40.8501ZM42.9858 26.2036C42.7025 26.373 42.3889 26.4839 42.0636 26.5296C41.7382 26.5753 41.4078 26.555 41.0918 26.4698C40.4573 26.3012 39.9169 25.8875 39.5873 25.3181C39.2576 24.7487 39.1651 24.0693 39.3299 23.4266C39.3907 23.2108 39.4773 23.003 39.5876 22.8076C39.8106 22.4284 40.1259 22.112 40.5033 21.8887C40.7916 21.7225 41.1091 21.6151 41.4376 21.5726C41.766 21.53 42.0988 21.5533 42.4169 21.6409C42.735 21.7285 43.032 21.8788 43.2909 22.0832C43.5497 22.2875 43.7653 22.5418 43.9251 22.8313C44.0887 23.1161 44.1943 23.4312 44.2357 23.7586C44.2771 24.086 44.2535 24.419 44.1662 24.7385C44.0789 25.058 43.9297 25.3576 43.7272 25.62C43.5248 25.8823 43.273 26.1022 42.9866 26.267L42.9858 26.2036ZM54.94 25.2865C54.7253 24.9057 54.6139 24.474 54.6169 24.0342C54.62 23.5943 54.7373 23.1617 54.9573 22.7793C55.1771 22.3976 55.4931 22.0805 55.873 21.8604C56.3038 21.6077 56.798 21.4886 57.2932 21.5182C57.7883 21.5478 58.2619 21.7249 58.654 22.0268C59.0461 22.3287 59.3391 22.742 59.4956 23.2142C59.6522 23.6864 59.6654 24.1963 59.5335 24.6791C59.4016 25.1619 59.1306 25.596 58.7548 25.9263C58.379 26.2566 57.9154 26.4682 57.4228 26.5343C56.9301 26.6003 56.4306 26.5179 55.9876 26.2975C55.5446 26.077 55.1781 25.7284 54.9345 25.296L54.94 25.2865Z" fill="#123A89"/>
<path d="M32.3381 14.7467L33.2707 15.2849L32.7258 16.2291C32.5813 16.4795 32.541 16.7763 32.6137 17.0543C32.6864 17.3323 32.8662 17.5687 33.1135 17.7114C33.3609 17.8542 33.6555 17.8916 33.9325 17.8155C34.2096 17.7393 34.4465 17.5559 34.591 17.3055L35.1359 16.3613L36.0684 16.8995C36.3158 17.0423 36.6104 17.0797 36.8875 17.0036C37.1645 16.9274 37.4014 16.744 37.5459 16.4936C37.6904 16.2432 37.7308 15.9463 37.6581 15.6683C37.5853 15.3903 37.4056 15.154 37.1582 15.0112L36.2256 14.473L36.7705 13.5289C36.915 13.2785 36.9554 12.9816 36.8827 12.7036C36.81 12.4256 36.6302 12.1893 36.3828 12.0465C36.1355 11.9038 35.8409 11.8664 35.5638 11.9425C35.2867 12.0186 35.0499 12.2021 34.9054 12.4525L34.3605 13.3966L33.4279 12.8584C33.1806 12.7157 32.886 12.6782 32.6089 12.7544C32.3318 12.8305 32.095 13.014 31.9505 13.2644C31.8059 13.5148 31.7656 13.8116 31.8383 14.0896C31.911 14.3676 32.0908 14.604 32.3381 14.7467Z" fill="#123A89"/>
<path d="M9.64396 49.9554L10.1888 49.0113L11.1214 49.5495C11.3688 49.6922 11.6634 49.7296 11.9404 49.6535C12.2175 49.5774 12.4544 49.3939 12.5989 49.1435C12.7434 48.8931 12.7837 48.5963 12.711 48.3183C12.6383 48.0403 12.4585 47.8039 12.2112 47.6612L11.2786 47.1229L11.8235 46.1788C11.968 45.9284 12.0084 45.6315 11.9357 45.3535C11.863 45.0755 11.6832 44.8392 11.4358 44.6964C11.1885 44.5537 10.8939 44.5163 10.6168 44.5924C10.3397 44.6685 10.1029 44.852 9.95836 45.1024L9.41348 46.0465L8.4809 45.5083C8.23357 45.3656 7.93896 45.3282 7.66188 45.4043C7.3848 45.4804 7.14795 45.6639 7.00344 45.9143C6.85893 46.1647 6.81858 46.4615 6.89129 46.7395C6.964 47.0175 7.14379 47.2539 7.39113 47.3966L8.3237 47.9348L7.77881 48.879C7.6343 49.1294 7.59396 49.4263 7.66666 49.7042C7.73937 49.9822 7.91916 50.2186 8.1665 50.3614C8.41383 50.5041 8.70844 50.5415 8.98552 50.4654C9.2626 50.3893 9.49945 50.2058 9.64396 49.9554Z" fill="#123A89"/>
<path d="M48.6209 60.5054C48.4764 60.7558 48.436 61.0526 48.5087 61.3306C48.5814 61.6086 48.7612 61.845 49.0086 61.9877L49.9411 62.5259L49.3962 63.4701C49.2517 63.7205 49.2114 64.0173 49.2841 64.2953C49.3568 64.5733 49.5366 64.8097 49.7839 64.9524C50.0313 65.0952 50.3259 65.1326 50.603 65.0565C50.88 64.9803 51.1169 64.7969 51.2614 64.5465L51.8063 63.6023L52.7388 64.1405C52.9862 64.2833 53.2808 64.3207 53.5579 64.2446C53.835 64.1684 54.0718 63.985 54.2163 63.7346C54.3608 63.4842 54.4012 63.1873 54.3285 62.9093C54.2558 62.6313 54.076 62.395 53.8286 62.2522L52.8961 61.714L53.4409 60.7699C53.5855 60.5195 53.6258 60.2226 53.5531 59.9446C53.4804 59.6666 53.3006 59.4302 53.0533 59.2875C52.8059 59.1448 52.5113 59.1073 52.2342 59.1835C51.9572 59.2596 51.7203 59.4431 51.5758 59.6935L51.0309 60.6376L50.0983 60.0994C49.851 59.9567 49.5564 59.9192 49.2793 59.9954C49.0022 60.0715 48.7654 60.2549 48.6209 60.5054Z" fill="#123A89"/>
<path d="M77.7667 26.805L77.2218 27.7491L76.2893 27.2109C76.0419 27.0682 75.7473 27.0307 75.4702 27.1069C75.1931 27.183 74.9563 27.3664 74.8118 27.6168C74.6673 27.8673 74.6269 28.1641 74.6996 28.4421C74.7723 28.7201 74.9521 28.9565 75.1995 29.0992L76.132 29.6374L75.5872 30.5816C75.4426 30.832 75.4023 31.1288 75.475 31.4068C75.5477 31.6848 75.7275 31.9212 75.9748 32.0639C76.2222 32.2067 76.5168 32.2441 76.7939 32.168C77.0709 32.0918 77.3078 31.9084 77.4523 31.658L77.9972 30.7138L78.9298 31.252C79.1771 31.3948 79.4717 31.4322 79.7488 31.3561C80.0259 31.2799 80.2627 31.0965 80.4072 30.8461C80.5518 30.5957 80.5921 30.2988 80.5194 30.0208C80.4467 29.7428 80.2669 29.5065 80.0195 29.3637L79.087 28.8255L79.6319 27.8814C79.7764 27.631 79.8167 27.3341 79.744 27.0561C79.6713 26.7781 79.4915 26.5418 79.2442 26.399C78.9968 26.2563 78.7022 26.2188 78.4252 26.295C78.1481 26.3711 77.9112 26.5546 77.7667 26.805Z" fill="#123A89"/>
</svg>
