<svg width="155" height="154" viewBox="0 0 155 154" fill="none" xmlns="http://www.w3.org/2000/svg">
<path d="M41.4434 53.1851C43.2981 53.5101 45.1085 53.0529 46.5454 52.0593L63.8224 68.252C63.3076 69.0199 62.9331 69.9032 62.7629 70.8745C62.1081 74.611 64.6059 78.1744 68.3458 78.8297C68.735 78.8979 69.1162 78.9123 69.4998 78.9133L72.2538 88.4797C70.7755 89.4905 69.6908 91.0621 69.3581 92.9608C68.7034 96.6973 71.2012 100.261 74.9411 100.916C75.5943 101.03 76.235 101.017 76.8609 100.949L79.3996 107.205C77.9462 108.214 76.8762 109.781 76.5465 111.663C75.8917 115.399 78.3895 118.962 82.1294 119.618C85.0164 120.124 87.7819 118.735 89.2026 116.361L102.989 120.36C102.668 123.883 105.066 127.125 108.613 127.747C112.352 128.402 115.913 125.9 116.568 122.164C117.222 118.427 114.725 114.864 110.985 114.209C108.243 113.728 105.607 114.955 104.134 117.114L90.1576 113.06C90.2618 109.698 87.9132 106.677 84.5016 106.08C83.8687 105.969 83.2461 105.978 82.6355 106.039L80.0869 99.7595C81.5194 98.7511 82.5701 97.1945 82.8962 95.333C83.551 91.5965 81.0532 88.0332 77.3133 87.3779C76.6973 87.2699 76.0894 87.2751 75.4935 87.3311L72.8246 78.0551C74.5884 77.0874 75.9267 75.3824 76.301 73.2467C76.7214 70.8471 75.8329 68.5321 74.1616 67.0008L78.0611 59.5386C78.2646 59.5917 78.4599 59.6713 78.6732 59.7086C82.4131 60.364 85.9736 57.8622 86.6283 54.1257C87.283 50.3892 84.7853 46.8259 81.0454 46.1705C79.3362 45.8711 77.6778 46.2572 76.2998 47.0937L64.8524 37.9261C65.0535 37.4555 65.2169 36.9608 65.3089 36.4362C65.9636 32.6997 63.4658 29.1364 59.7259 28.4811C55.986 27.8258 52.4255 30.3275 51.7708 34.064C51.5596 35.2689 51.7052 36.4491 52.0882 37.5279L46.9651 41.1233C46.0809 40.3962 45.0239 39.8587 43.8156 39.647C40.0757 38.9917 36.5152 41.4934 35.8604 45.2299C35.2057 48.9664 37.7035 52.5298 41.4434 53.1851ZM110.392 117.593C112.257 117.92 113.51 119.706 113.183 121.571C112.856 123.436 111.07 124.689 109.206 124.362C107.341 124.035 106.087 122.249 106.414 120.385C106.741 118.52 108.527 117.266 110.392 117.593ZM86.7 113.442C86.3733 115.307 84.5873 116.56 82.7224 116.233C80.8576 115.906 79.6042 114.121 79.931 112.256C80.2577 110.391 82.0437 109.137 83.9086 109.464C85.7734 109.791 87.0268 111.577 86.7 113.442ZM79.5117 94.74C79.1849 96.6049 77.399 97.8582 75.5341 97.5315C73.6693 97.2047 72.4159 95.4188 72.7427 93.5539C73.0694 91.689 74.8554 90.4356 76.7202 90.7624C78.5851 91.0892 79.8385 92.8751 79.5117 94.74ZM66.1474 71.4676C66.4742 69.6027 68.2601 68.3493 70.125 68.6761C71.9898 69.0029 73.2432 70.7888 72.9164 72.6537C72.5897 74.5186 70.8037 75.7719 68.9389 75.4452C67.074 75.1184 65.8206 73.3325 66.1474 71.4676ZM80.4523 49.5551C82.3172 49.8818 83.5706 51.6678 83.2438 53.5326C82.917 55.3975 81.1311 56.6509 79.2662 56.3241C77.4013 55.9973 76.148 54.2114 76.4747 52.3465C76.8015 50.4817 78.5874 49.2283 80.4523 49.5551ZM73.8987 49.5684C73.5237 50.2352 73.2296 50.9581 73.0902 51.7535C72.6834 54.0753 73.4962 56.3247 75.063 57.8551L71.117 65.4034C70.9829 65.3729 70.8568 65.3159 70.718 65.2916C69.1848 65.0229 67.6945 65.306 66.4067 65.9664L48.767 49.4345C49.0486 48.8629 49.2829 48.2621 49.3985 47.6021C49.6263 46.3025 49.451 45.0334 48.9984 43.8936L54.0016 40.3853C54.9195 41.1985 56.054 41.7915 57.3537 42.0192C59.3472 42.3685 61.2743 41.8027 62.7538 40.6456L73.8987 49.5684ZM59.1328 31.8656C60.9977 32.1924 62.2511 33.9783 61.9243 35.8432C61.5976 37.7081 59.8116 38.9614 57.9467 38.6347C56.0819 38.3079 54.8285 36.522 55.1553 34.6571C55.482 32.7922 57.268 31.5388 59.1328 31.8656ZM43.2226 43.0315C45.0874 43.3583 46.3408 45.1442 46.014 47.0091C45.6873 48.874 43.9013 50.1273 42.0365 49.8006C40.1716 49.4738 38.9182 47.6879 39.245 45.823C39.5717 43.9581 41.3577 42.7047 43.2226 43.0315Z" fill="#123A89"/>
</svg>
