<svg width="22" height="22" viewBox="0 0 22 22" fill="none" xmlns="http://www.w3.org/2000/svg">
<circle cx="11" cy="11" r="11" fill="#FFA417"/>
<path d="M5.33 11C5.33 9.632 6.303 8.52 7.5 8.52H10.3V7H7.5C5.568 7 4 8.792 4 11C4 13.208 5.568 15 7.5 15H10.3V13.48H7.5C6.303 13.48 5.33 12.368 5.33 11ZM8.2 11.8H13.8V10.2H8.2V11.8ZM14.5 7L11.7 7V8.52H14.5C15.697 8.52 16.67 9.632 16.67 11C16.67 12.368 15.697 13.48 14.5 13.48H11.7V15H14.5C16.432 15 18 13.208 18 11C18 8.792 16.432 7 14.5 7Z" fill="black"/>
</svg>
