<svg width="69" height="72" viewBox="0 0 69 72" fill="none" xmlns="http://www.w3.org/2000/svg">
<path d="M28.0124 46.2542C17.4746 34.2126 17.956 16.5255 28.5593 5.11158C24.4253 6.31588 20.4789 8.37775 17.0005 11.3206C3.80765 22.4815 2.3384 42.0712 13.7188 55.0751C25.0993 68.079 45.02 69.5731 58.2127 58.4122C59.1894 57.5861 60.0999 56.7127 60.9475 55.8003C49.4023 59.1633 36.3923 55.8295 28.0124 46.2542Z" stroke="#123A89" stroke-width="4" stroke-miterlimit="10" stroke-linecap="round" stroke-linejoin="round"/>
<path d="M45.1905 18.7945C45.4026 19.3505 45.6749 19.8678 45.9771 20.2686C46.2316 20.6059 46.5285 20.8606 46.8417 21.065C46.4828 21.2399 46.1468 21.4441 45.8716 21.6516C45.4526 21.9678 44.9766 22.3927 44.5617 22.8656C44.3404 22.3386 44.0534 21.7937 43.7186 21.3496C43.4527 20.9971 43.151 20.7157 42.8424 20.4916C43.3445 20.2739 43.8173 20.0105 44.1643 19.749C44.5931 19.4255 44.9235 19.1117 45.1905 18.7945ZM45.5217 16.4373C45.2508 16.3993 44.9573 16.5289 44.797 16.8787C44.4916 17.5453 44.1676 18.0581 43.3529 18.6719C42.538 19.2861 41.1487 19.7061 40.7961 19.6567C40.1205 19.562 40.0601 20.8874 40.6104 20.9818C41.1606 21.0761 42.0565 21.3847 42.6422 22.1611C43.2281 22.9382 43.6528 24.1911 43.7067 24.6483C43.7334 24.8738 43.9672 25.0404 44.2293 25.0772C44.4991 25.115 44.7988 25.0154 44.9337 24.7013C45.1995 24.0814 45.9298 23.2963 46.6836 22.7275C47.4176 22.1741 48.3938 21.8566 48.7584 21.9077C48.7682 21.9091 48.7775 21.9107 48.7863 21.9126C48.79 21.9134 48.7937 21.914 48.7975 21.9146C49.1405 21.9626 49.7495 20.922 48.972 20.5875C48.1864 20.2493 47.4877 20.0323 47.0533 19.4564C46.6191 18.8807 46.2382 17.9063 46.1219 17.0643C46.073 16.708 45.8101 16.4777 45.5217 16.4373Z" fill="#123A89"/>
<path d="M55.3601 29.0395C55.4627 29.2338 55.5745 29.4131 55.6923 29.5695C55.7536 29.6507 55.8178 29.726 55.8842 29.7959C55.8209 29.8384 55.7604 29.8814 55.7031 29.9245C55.5992 30.0029 55.4046 30.1565 55.1803 30.365C55.0726 30.1671 54.9524 29.9753 54.8206 29.8007C54.7584 29.7183 54.6938 29.6408 54.6275 29.5681C54.7802 29.48 54.9209 29.3885 55.0428 29.2966C55.1574 29.2101 55.263 29.1244 55.3601 29.0395ZM55.7186 26.6876C55.5327 26.6615 55.3316 26.7503 55.2216 26.9901C55.0123 27.4471 54.7901 27.7988 54.2315 28.2197C53.6727 28.6408 52.7201 28.9288 52.4783 28.8949C52.0152 28.83 51.9737 29.7389 52.351 29.8036C52.7283 29.8682 53.3425 30.0798 53.744 30.6123C54.1458 31.1451 54.4369 32.0042 54.4739 32.3176C54.4921 32.4722 54.6525 32.5865 54.8323 32.6117C55.0173 32.6376 55.2227 32.5693 55.3153 32.3538C55.4975 31.9288 55.9982 31.3906 56.5151 31.0005C57.0186 30.6209 57.6879 30.4032 57.938 30.4383C57.9446 30.4392 57.951 30.4404 57.9571 30.4416C57.9598 30.4421 57.9621 30.4426 57.9648 30.443C58.2001 30.476 58.6175 29.7626 58.0844 29.5331C57.5457 29.3013 57.0667 29.1525 56.7688 28.7574C56.4709 28.3627 56.2099 27.6947 56.1302 27.1173C56.0965 26.8731 55.9163 26.7153 55.7186 26.6876Z" fill="#123A89"/>
</svg>
