<svg width="58" height="58" viewBox="0 0 58 58" fill="none" xmlns="http://www.w3.org/2000/svg">
<g filter="url(#filter0_d)">
<circle cx="24.8571" cy="24.8571" r="21.8571" fill="#195BDB"/>
</g>
<path d="M24.8572 5.91429C14.3975 5.91429 5.91431 14.4431 5.91431 24.9625C5.91431 33.3787 11.3414 40.5186 18.8696 43.0377C19.8152 43.2139 20.1214 42.6234 20.1214 42.1218V38.5757C14.8522 39.7281 13.7551 36.328 13.7551 36.328C12.8932 34.1263 11.6508 33.5406 11.6508 33.5406C9.93177 32.358 11.7819 32.3834 11.7819 32.3834C13.684 32.5168 14.6848 34.347 14.6848 34.347C16.3739 37.2582 19.1159 36.4169 20.1972 35.9296C20.3661 34.6994 20.8571 33.8581 21.4001 33.3834C17.1932 32.8993 12.77 31.2659 12.77 23.9689C12.77 21.8878 13.5104 20.1894 14.7212 18.856C14.5254 18.375 13.8766 16.4369 14.9058 13.8146C14.9058 13.8146 16.497 13.3034 20.1167 15.767C21.6274 15.3448 23.247 15.1336 24.8572 15.1257C26.4673 15.1336 28.0885 15.3448 29.6023 15.767C33.2189 13.3034 34.8069 13.8146 34.8069 13.8146C35.8377 16.4384 35.1889 18.3766 34.9932 18.856C36.2087 20.1894 36.9427 21.8894 36.9427 23.9689C36.9427 31.285 32.5117 32.8961 28.2937 33.3676C28.9725 33.9581 29.5929 35.1168 29.5929 36.8947V42.1218C29.5929 42.6282 29.896 43.2235 30.8573 43.0361C38.3792 40.5138 43.8 33.3755 43.8 24.9625C43.8 14.4431 35.3184 5.91429 24.8572 5.91429Z" fill="#0B1A32"/>
<defs>
<filter id="filter0_d" x="0" y="0" width="57.7143" height="57.7143" filterUnits="userSpaceOnUse" color-interpolation-filters="sRGB">
<feFlood flood-opacity="0" result="BackgroundImageFix"/>
<feColorMatrix in="SourceAlpha" type="matrix" values="0 0 0 0 0 0 0 0 0 0 0 0 0 0 0 0 0 0 127 0" result="hardAlpha"/>
<feOffset dx="4" dy="4"/>
<feGaussianBlur stdDeviation="3.5"/>
<feComposite in2="hardAlpha" operator="out"/>
<feColorMatrix type="matrix" values="0 0 0 0 0 0 0 0 0 0 0 0 0 0 0 0 0 0 0.29 0"/>
<feBlend mode="normal" in2="BackgroundImageFix" result="effect1_dropShadow"/>
<feBlend mode="normal" in="SourceGraphic" in2="effect1_dropShadow" result="shape"/>
</filter>
</defs>
</svg>
