<svg width="58" height="58" viewBox="0 0 58 58" fill="none" xmlns="http://www.w3.org/2000/svg">
<g filter="url(#filter0_d)">
<circle cx="25.1428" cy="24.8571" r="21.8571" fill="#0B1A32"/>
</g>
<path d="M25.1428 6.64286C35.1861 6.64286 43.3571 14.8138 43.3571 24.8571C43.3571 34.9005 35.1861 43.0714 25.1428 43.0714C15.0994 43.0714 6.9285 34.9005 6.9285 24.8571C6.9285 14.8138 15.0994 6.64286 25.1428 6.64286ZM25.1428 3C13.0722 3 3.28564 12.7865 3.28564 24.8571C3.28564 36.9277 13.0722 46.7143 25.1428 46.7143C37.2134 46.7143 46.9999 36.9277 46.9999 24.8571C46.9999 12.7865 37.2134 3 25.1428 3ZM25.1428 25.8589L14.2288 17.535H36.055L25.1428 25.8589ZM25.1428 28.2049L14.2142 19.7735V32.1064H36.0714V19.7735L25.1428 28.2049Z" fill="#195BDB"/>
<defs>
<filter id="filter0_d" x="0.285645" y="0" width="57.7143" height="57.7143" filterUnits="userSpaceOnUse" color-interpolation-filters="sRGB">
<feFlood flood-opacity="0" result="BackgroundImageFix"/>
<feColorMatrix in="SourceAlpha" type="matrix" values="0 0 0 0 0 0 0 0 0 0 0 0 0 0 0 0 0 0 127 0" result="hardAlpha"/>
<feOffset dx="4" dy="4"/>
<feGaussianBlur stdDeviation="3.5"/>
<feComposite in2="hardAlpha" operator="out"/>
<feColorMatrix type="matrix" values="0 0 0 0 0 0 0 0 0 0 0 0 0 0 0 0 0 0 0.29 0"/>
<feBlend mode="normal" in2="BackgroundImageFix" result="effect1_dropShadow"/>
<feBlend mode="normal" in="SourceGraphic" in2="effect1_dropShadow" result="shape"/>
</filter>
</defs>
</svg>
