<svg width="59" height="58" viewBox="0 0 59 58" fill="none" xmlns="http://www.w3.org/2000/svg">
<g filter="url(#filter0_d)">
<circle cx="25.5" cy="24.8571" r="21.8571" fill="#0B1A32"/>
</g>
<path d="M25.5 6.64286C35.5433 6.64286 43.7143 14.8138 43.7143 24.8571C43.7143 34.9005 35.5433 43.0714 25.5 43.0714C15.4566 43.0714 7.28568 34.9005 7.28568 24.8571C7.28568 14.8138 15.4566 6.64286 25.5 6.64286ZM25.5 3C13.4294 3 3.64282 12.7865 3.64282 24.8571C3.64282 36.9277 13.4294 46.7143 25.5 46.7143C37.5706 46.7143 47.3571 36.9277 47.3571 24.8571C47.3571 12.7865 37.5706 3 25.5 3ZM21.8571 17.5714C21.8571 18.586 21.0429 19.4074 20.0357 19.4074C19.0284 19.4074 18.2143 18.5878 18.2143 17.5714C18.2143 16.5569 19.0284 15.7354 20.0357 15.7354C21.0429 15.7354 21.8571 16.5587 21.8571 17.5714ZM21.8571 21.2143H18.2143V32.1429H21.8571V21.2143ZM27.3214 21.2143H23.6785V32.1429H27.3214V26.9318C27.3214 23.7952 30.9679 23.5056 30.9679 26.9318V32.1429H34.6071V26.0247C34.6071 20.0431 28.9097 20.2617 27.3214 23.2051V21.2143Z" fill="#195BDB"/>
<defs>
<filter id="filter0_d" x="0.642822" y="0" width="57.7143" height="57.7143" filterUnits="userSpaceOnUse" color-interpolation-filters="sRGB">
<feFlood flood-opacity="0" result="BackgroundImageFix"/>
<feColorMatrix in="SourceAlpha" type="matrix" values="0 0 0 0 0 0 0 0 0 0 0 0 0 0 0 0 0 0 127 0" result="hardAlpha"/>
<feOffset dx="4" dy="4"/>
<feGaussianBlur stdDeviation="3.5"/>
<feComposite in2="hardAlpha" operator="out"/>
<feColorMatrix type="matrix" values="0 0 0 0 0 0 0 0 0 0 0 0 0 0 0 0 0 0 0.29 0"/>
<feBlend mode="normal" in2="BackgroundImageFix" result="effect1_dropShadow"/>
<feBlend mode="normal" in="SourceGraphic" in2="effect1_dropShadow" result="shape"/>
</filter>
</defs>
</svg>
