<svg width="97" height="114" viewBox="0 0 97 114" fill="none" xmlns="http://www.w3.org/2000/svg">
<path d="M5.47172 89.6931L13.9498 89.347L19.3392 95.9042L21.6205 87.787L29.4518 84.6633L22.391 79.9601L21.8851 71.4913L15.2416 76.6827L7.10239 74.4828L10.0518 82.4418L5.47172 89.6931Z" fill="#0B1A32"/>
<path d="M43.7569 74.5207L40.8043 76.203C40.6126 76.3141 40.4446 76.4618 40.3099 76.6378C40.1753 76.8137 40.0766 77.0145 40.0196 77.2286C39.9625 77.4427 39.9482 77.6659 39.9774 77.8855C40.0066 78.1052 40.0788 78.3169 40.1899 78.5086C40.3009 78.7004 40.4486 78.8684 40.6246 79.003C40.8006 79.1376 41.0013 79.2363 41.2154 79.2934C41.4295 79.3504 41.6527 79.3647 41.8724 79.3355C42.092 79.3063 42.3037 79.2341 42.4955 79.1231L45.4318 77.4363C45.6416 77.3364 45.8286 77.1942 45.9809 77.0187C46.1332 76.8431 46.2475 76.638 46.3168 76.4162C46.386 76.1943 46.4087 75.9606 46.3833 75.7295C46.3579 75.4985 46.2851 75.2753 46.1693 75.0737C46.0535 74.8722 45.8974 74.6968 45.7106 74.5585C45.5238 74.4202 45.3105 74.322 45.0839 74.2701C44.8574 74.2181 44.6226 74.2136 44.3942 74.2567C44.1659 74.2998 43.9489 74.3897 43.7569 74.5207Z" fill="#123A89"/>
<path d="M42.7264 70.1897C42.9199 70.0796 43.0896 69.9323 43.2259 69.7563C43.3622 69.5802 43.4622 69.379 43.5203 69.1641C43.5784 68.9492 43.5933 68.7249 43.5643 68.5042C43.5353 68.2835 43.4628 68.0707 43.3512 67.8781C43.1281 67.4925 42.7615 67.2108 42.3315 67.0946C41.9014 66.9784 41.4428 67.037 41.0559 67.2578L23.9343 77.0933L23.6514 72.388L30.4753 68.468C30.8609 68.2449 31.1426 67.8783 31.2588 67.4483C31.3751 67.0182 31.3164 66.5597 31.0956 66.1727C30.9856 65.9792 30.8382 65.8095 30.6622 65.6732C30.4862 65.537 30.2849 65.4369 30.07 65.3788C29.8551 65.3207 29.6309 65.3058 29.4101 65.3348C29.1894 65.3638 28.9767 65.4363 28.7841 65.548C26.5671 66.8353 21.0135 69.9981 20.8599 70.1138L14.912 74.8644L7.53788 72.8713C7.24109 72.7936 6.92873 72.7983 6.63444 72.885C6.34015 72.9717 6.07508 73.137 5.86778 73.3631C5.67227 73.5865 5.53917 73.8574 5.48192 74.1487C5.42467 74.4399 5.44531 74.7411 5.54175 75.0218L8.21575 82.1901L4.08048 88.6359C3.87076 88.8945 3.74227 89.2094 3.71121 89.5408C3.68015 89.8723 3.74791 90.2056 3.90594 90.4986C4.06398 90.7916 4.30523 91.0313 4.59927 91.1875C4.89332 91.3436 5.22701 91.4092 5.55828 91.376L13.1903 90.9933L18.0223 96.9632C18.2433 97.2364 18.5442 97.4338 18.8829 97.5277C19.3146 97.6444 19.775 97.5848 20.1628 97.362C20.5506 97.1393 20.834 96.7716 20.9507 96.3398L22.9482 88.9494L30.0615 86.1557C30.2344 86.0976 32.9934 84.4852 34.6226 83.5631C34.9385 83.3182 35.1572 82.969 35.2395 82.5778C35.3219 82.1866 35.2626 81.7789 35.0722 81.4274C34.8819 81.0759 34.5728 80.8034 34.2002 80.6586C33.8276 80.5138 33.4157 80.5061 33.0379 80.6369L29.6053 82.6088L25.6831 79.994L42.7264 70.1897ZM20.957 86.1055C20.7164 86.2014 20.5012 86.3514 20.328 86.5439C20.1549 86.7364 20.0283 86.9662 19.9582 87.2155L18.5855 92.2944L15.2471 88.2304C15.0226 87.9624 14.7204 87.7709 14.3822 87.6822C14.227 87.6139 14.0623 87.5694 13.8938 87.5502L8.59669 87.7604L11.4305 83.2861C11.5708 83.0663 11.6581 82.817 11.6858 82.5578C11.7134 82.2985 11.6806 82.0364 11.5898 81.792L9.77723 76.8653L14.8398 78.2336C15.0905 78.2987 15.3527 78.3051 15.6063 78.2525C15.8598 78.1998 16.0978 78.0895 16.3018 77.9301L20.5215 74.791L20.8294 80.1145C20.845 80.3747 20.9207 80.6278 21.0505 80.8538C21.1804 81.0799 21.3609 81.2727 21.5778 81.4172L25.94 84.343L20.957 86.1055Z" fill="#123A89"/>
<path d="M50.9934 65.4545L57.1969 61.8908C57.5477 61.6515 57.7953 61.2886 57.8902 60.8746C57.9852 60.4607 57.9204 60.0261 57.7088 59.6579C57.4972 59.2896 57.1545 59.0147 56.7491 58.8882C56.3437 58.7616 55.9055 58.7927 55.522 58.9752L49.3185 62.5388C48.9676 62.7781 48.72 63.1411 48.6251 63.555C48.5302 63.969 48.595 64.4035 48.8065 64.7718C49.0181 65.1401 49.3608 65.4149 49.7662 65.5415C50.1716 65.6681 50.6099 65.637 50.9934 65.4545Z" fill="#123A89"/>
<path d="M75.0815 40.9599C74.8585 40.5743 74.4919 40.2926 74.0618 40.1764C73.6318 40.0601 73.1732 40.1188 72.7862 40.3395L36.2152 61.3204C35.924 61.486 35.6888 61.7346 35.5396 62.0345C35.3903 62.3343 35.3337 62.6718 35.3769 63.0039C35.4202 63.336 35.5614 63.6478 35.7826 63.8993C36.0037 64.1509 36.2947 64.3309 36.6186 64.4164C37.0496 64.5264 37.5066 64.4615 37.8901 64.236L74.4567 43.2715C74.6502 43.1614 74.82 43.0141 74.9562 42.838C75.0925 42.662 75.1926 42.4607 75.2506 42.2458C75.3087 42.0309 75.3237 41.8067 75.2947 41.586C75.2656 41.3653 75.1932 41.1525 75.0815 40.9599Z" fill="#123A89"/>
<path d="M65.3198 66.0253C65.7091 65.8016 65.9937 65.4324 66.1109 64.9989C66.2281 64.5654 66.1682 64.1031 65.9445 63.7137C65.7209 63.3243 65.3517 63.0398 64.9182 62.9226C64.4847 62.8054 64.0224 62.8653 63.633 63.0889L49.6457 71.1515C49.4522 71.2616 49.2824 71.4089 49.1462 71.5849C49.0099 71.761 48.9099 71.9622 48.8518 72.1771C48.7937 72.392 48.7787 72.6163 48.8078 72.837C48.8368 73.0577 48.9092 73.2705 49.0209 73.4631C49.1322 73.655 49.2804 73.8232 49.4568 73.9578C49.6332 74.0924 49.8345 74.1908 50.0491 74.2475C50.263 74.3067 50.4865 74.323 50.7067 74.2956C50.9269 74.2682 51.1396 74.1976 51.3324 74.0878L65.3198 66.0253Z" fill="#123A89"/>
<path d="M84.5846 51.0396L71.6813 58.4519C71.4879 58.562 71.3181 58.7093 71.1818 58.8853C71.0456 59.0613 70.9455 59.2626 70.8874 59.4775C70.8294 59.6924 70.8144 59.9167 70.8434 60.1374C70.8724 60.3581 70.9449 60.5709 71.0566 60.7634C71.1667 60.9569 71.314 61.1267 71.49 61.2629C71.666 61.3992 71.8673 61.4992 72.0822 61.5573C72.2971 61.6154 72.5214 61.6304 72.7421 61.6013C72.9628 61.5723 73.1755 61.4999 73.3681 61.3882L86.2758 53.9596C86.6614 53.7365 86.9431 53.37 87.0593 52.9399C87.1756 52.5099 87.1169 52.0513 86.8961 51.6643C86.786 51.4709 86.6387 51.3011 86.4627 51.1648C86.2867 51.0286 86.0854 50.9285 85.8705 50.8704C85.6556 50.8124 85.4313 50.7974 85.2106 50.8264C84.9899 50.8555 84.7772 50.9279 84.5846 51.0396Z" fill="#123A89"/>
<path d="M73.3424 50.691C73.1194 50.3054 72.7528 50.0237 72.3227 49.9074C71.8927 49.7912 71.4341 49.8499 71.0471 50.0706L61.1216 55.7724C60.8317 55.9373 60.5973 56.1845 60.4479 56.4827C60.2985 56.7808 60.2409 57.1166 60.2823 57.4475C60.3237 57.7784 60.4624 58.0896 60.6807 58.3418C60.899 58.5939 61.1871 58.7756 61.5087 58.864C61.7243 58.9213 61.9492 58.9353 62.1702 58.9051C62.3913 58.8749 62.6041 58.8011 62.7965 58.688L72.7352 52.9374C73.1057 52.7127 73.3754 52.354 73.4884 51.9357C73.6015 51.5175 73.5492 51.0717 73.3424 50.691Z" fill="#123A89"/>
<path d="M66.7127 106.176C67.1444 106.292 67.6048 106.233 67.9926 106.01C68.3804 105.787 68.6638 105.42 68.7805 104.988L69.0885 103.848L70.228 104.156C70.6597 104.273 71.1201 104.213 71.5079 103.991C71.8957 103.768 72.1791 103.4 72.2958 102.968C72.4125 102.537 72.3529 102.076 72.1301 101.688C71.9074 101.301 71.5397 101.017 71.1079 100.901L69.9684 100.593L70.2808 99.4368C70.3975 99.0051 70.3379 98.5447 70.1151 98.1569C69.8924 97.7691 69.5247 97.4857 69.093 97.369C68.6612 97.2523 68.2008 97.3119 67.813 97.5347C67.4252 97.7574 67.1418 98.1251 67.0251 98.5569L66.7171 99.6964L65.5776 99.3884C65.1459 99.2717 64.6855 99.3313 64.2977 99.5541C63.9099 99.7768 63.6265 100.145 63.5098 100.576C63.3931 101.008 63.4527 101.468 63.6755 101.856C63.8983 102.244 64.2659 102.527 64.6977 102.644L65.8372 102.952L65.5292 104.092C65.4689 104.306 65.4517 104.531 65.4787 104.752C65.5056 104.973 65.5762 105.187 65.6862 105.38C65.7963 105.574 65.9437 105.744 66.1198 105.881C66.296 106.017 66.4975 106.118 66.7127 106.176Z" fill="#123A89"/>
<path d="M32.6133 47.4383L32.3053 48.5778L31.1821 48.2742C30.7504 48.1576 30.29 48.2172 29.9022 48.4399C29.5144 48.6627 29.231 49.0304 29.1143 49.4621C28.9976 49.8939 29.0572 50.3543 29.28 50.742C29.5027 51.1298 29.8704 51.4133 30.3022 51.5299L31.4417 51.8379L31.1337 52.9774C31.017 53.4092 31.0766 53.8696 31.2994 54.2574C31.5221 54.6452 31.8898 54.9286 32.3216 55.0453C32.7533 55.1619 33.2137 55.1024 33.6015 54.8796C33.9893 54.6568 34.2727 54.2891 34.3894 53.8574L34.6974 52.7179L35.8369 53.0259C36.2686 53.1426 36.729 53.083 37.1168 52.8602C37.5046 52.6374 37.788 52.2697 37.9047 51.838C38.0214 51.4063 37.9618 50.9459 37.739 50.5581C37.5162 50.1703 37.1486 49.8869 36.7168 49.7702L35.5773 49.4622L35.8853 48.3227C36.002 47.891 35.9424 47.4306 35.7196 47.0428C35.4969 46.655 35.1292 46.3716 34.6974 46.2549C34.2657 46.1382 33.8053 46.1978 33.4175 46.4205C33.0297 46.6433 32.7463 47.011 32.6296 47.4427L32.6133 47.4383Z" fill="#123A89"/>
<path d="M52.6093 7.32207C52.1776 7.20538 51.7172 7.26497 51.3294 7.48774C50.9416 7.71051 50.6582 8.07821 50.5415 8.50994L50.2335 9.64943L49.094 9.34145C48.6623 9.22476 48.2019 9.28435 47.8141 9.50712C47.4263 9.72989 47.1429 10.0976 47.0262 10.5293C46.9095 10.9611 46.9691 11.4215 47.1918 11.8093C47.4146 12.197 47.7823 12.4805 48.214 12.5971L49.3535 12.9051L49.0455 14.0446C48.9289 14.4764 48.9885 14.9368 49.2112 15.3246C49.434 15.7124 49.8017 15.9958 50.2334 16.1125C50.6652 16.2291 51.1256 16.1696 51.5133 15.9468C51.9011 15.724 52.1846 15.3563 52.3012 14.9246L52.6092 13.7851L53.7487 14.0931C54.1805 14.2098 54.6409 14.1502 55.0287 13.9274C55.4165 13.7046 55.6999 13.3369 55.8166 12.9052C55.9332 12.4735 55.8737 12.0131 55.6509 11.6253C55.4281 11.2375 55.0604 10.9541 54.6287 10.8374L53.4892 10.5294L53.7972 9.3899C53.9139 8.95817 53.8543 8.49776 53.6315 8.10997C53.4087 7.72217 53.041 7.43876 52.6093 7.32207Z" fill="#123A89"/>
<path d="M36.011 104.148C36.4427 104.265 36.9031 104.206 37.2909 103.983C37.6787 103.76 37.9621 103.392 38.0788 102.961L38.3868 101.821L39.5263 102.129C39.958 102.246 40.4185 102.186 40.8062 101.963C41.194 101.741 41.4775 101.373 41.5941 100.941C41.7108 100.509 41.6512 100.049 41.4285 99.6613C41.2057 99.2735 40.838 98.99 40.4063 98.8734L39.2668 98.5654L39.5748 97.4259C39.6915 96.9941 39.6319 96.5337 39.4091 96.146C39.1863 95.7582 38.8186 95.4747 38.3869 95.358C37.9552 95.2414 37.4948 95.301 37.107 95.5237C36.7192 95.7465 36.4358 96.1142 36.3191 96.5459L36.0111 97.6854L34.8716 97.3774C34.4399 97.2607 33.9794 97.3203 33.5917 97.5431C33.2039 97.7659 32.9204 98.1336 32.8038 98.5653C32.6871 98.997 32.7467 99.4574 32.9694 99.8452C33.1922 100.233 33.5599 100.516 33.9916 100.633L35.1311 100.941L34.8231 102.081C34.7064 102.512 34.766 102.973 34.9888 103.361C35.2116 103.748 35.5793 104.032 36.011 104.148Z" fill="#123A89"/>
</svg>
